<svg width="373" height="156" viewBox="0 0 373 156" fill="none" xmlns="http://www.w3.org/2000/svg">
<path d="M218.947 59L201.421 37.541V59H191.761V10.838H201.421V32.435L218.947 10.838H230.608L210.736 34.712L231.16 59H218.947ZM242.413 16.22C240.711 16.22 239.285 15.691 238.135 14.633C237.031 13.529 236.479 12.172 236.479 10.562C236.479 8.952 237.031 7.618 238.135 6.56C239.285 5.456 240.711 4.904 242.413 4.904C244.115 4.904 245.518 5.456 246.622 6.56C247.772 7.618 248.347 8.952 248.347 10.562C248.347 12.172 247.772 13.529 246.622 14.633C245.518 15.691 244.115 16.22 242.413 16.22ZM247.174 20.774V59H237.514V20.774H247.174ZM267.965 28.709V47.201C267.965 48.489 268.264 49.432 268.862 50.03C269.506 50.582 270.564 50.858 272.036 50.858H276.521V59H270.449C262.307 59 258.236 55.044 258.236 47.132V28.709H253.682V20.774H258.236V11.321H267.965V20.774H276.521V28.709H267.965ZM280.985 39.749C280.985 35.885 281.744 32.458 283.262 29.468C284.826 26.478 286.919 24.178 289.541 22.568C292.209 20.958 295.176 20.153 298.442 20.153C301.294 20.153 303.778 20.728 305.894 21.878C308.056 23.028 309.781 24.477 311.069 26.225V20.774H320.798V59H311.069V53.411C309.827 55.205 308.102 56.7 305.894 57.896C303.732 59.046 301.225 59.621 298.373 59.621C295.153 59.621 292.209 58.793 289.541 57.137C286.919 55.481 284.826 53.158 283.262 50.168C281.744 47.132 280.985 43.659 280.985 39.749ZM311.069 39.887C311.069 37.541 310.609 35.54 309.689 33.884C308.769 32.182 307.527 30.894 305.963 30.02C304.399 29.1 302.72 28.64 300.926 28.64C299.132 28.64 297.476 29.077 295.958 29.951C294.44 30.825 293.198 32.113 292.232 33.815C291.312 35.471 290.852 37.449 290.852 39.749C290.852 42.049 291.312 44.073 292.232 45.821C293.198 47.523 294.44 48.834 295.958 49.754C297.522 50.674 299.178 51.134 300.926 51.134C302.72 51.134 304.399 50.697 305.963 49.823C307.527 48.903 308.769 47.615 309.689 45.959C310.609 44.257 311.069 42.233 311.069 39.887ZM339.893 26.294C341.135 24.546 342.837 23.097 344.999 21.947C347.207 20.751 349.714 20.153 352.52 20.153C355.786 20.153 358.73 20.958 361.352 22.568C364.02 24.178 366.113 26.478 367.631 29.468C369.195 32.412 369.977 35.839 369.977 39.749C369.977 43.659 369.195 47.132 367.631 50.168C366.113 53.158 364.02 55.481 361.352 57.137C358.73 58.793 355.786 59.621 352.52 59.621C349.714 59.621 347.23 59.046 345.068 57.896C342.952 56.746 341.227 55.297 339.893 53.549V77.216H330.233V20.774H339.893V26.294ZM360.11 39.749C360.11 37.449 359.627 35.471 358.661 33.815C357.741 32.113 356.499 30.825 354.935 29.951C353.417 29.077 351.761 28.64 349.967 28.64C348.219 28.64 346.563 29.1 344.999 30.02C343.481 30.894 342.239 32.182 341.273 33.884C340.353 35.586 339.893 37.587 339.893 39.887C339.893 42.187 340.353 44.188 341.273 45.89C342.239 47.592 343.481 48.903 344.999 49.823C346.563 50.697 348.219 51.134 349.967 51.134C351.761 51.134 353.417 50.674 354.935 49.754C356.499 48.834 357.741 47.523 358.661 45.821C359.627 44.119 360.11 42.095 360.11 39.749ZM224.536 91.838V99.635H211.702V140H202.042V99.635H189.208V91.838H224.536ZM229.1 120.749C229.1 116.885 229.859 113.458 231.377 110.468C232.941 107.478 235.034 105.178 237.656 103.568C240.324 101.958 243.291 101.153 246.557 101.153C249.409 101.153 251.893 101.728 254.009 102.878C256.171 104.028 257.896 105.477 259.184 107.225V101.774H268.913V140H259.184V134.411C257.942 136.205 256.217 137.7 254.009 138.896C251.847 140.046 249.34 140.621 246.488 140.621C243.268 140.621 240.324 139.793 237.656 138.137C235.034 136.481 232.941 134.158 231.377 131.168C229.859 128.132 229.1 124.659 229.1 120.749ZM259.184 120.887C259.184 118.541 258.724 116.54 257.804 114.884C256.884 113.182 255.642 111.894 254.078 111.02C252.514 110.1 250.835 109.64 249.041 109.64C247.247 109.64 245.591 110.077 244.073 110.951C242.555 111.825 241.313 113.113 240.347 114.815C239.427 116.471 238.967 118.449 238.967 120.749C238.967 123.049 239.427 125.073 240.347 126.821C241.313 128.523 242.555 129.834 244.073 130.754C245.637 131.674 247.293 132.134 249.041 132.134C250.835 132.134 252.514 131.697 254.078 130.823C255.642 129.903 256.884 128.615 257.804 126.959C258.724 125.257 259.184 123.233 259.184 120.887ZM288.008 107.294C289.25 105.546 290.952 104.097 293.114 102.947C295.322 101.751 297.829 101.153 300.635 101.153C303.901 101.153 306.845 101.958 309.467 103.568C312.135 105.178 314.228 107.478 315.746 110.468C317.31 113.412 318.092 116.839 318.092 120.749C318.092 124.659 317.31 128.132 315.746 131.168C314.228 134.158 312.135 136.481 309.467 138.137C306.845 139.793 303.901 140.621 300.635 140.621C297.829 140.621 295.345 140.046 293.183 138.896C291.067 137.746 289.342 136.297 288.008 134.549V158.216H278.348V101.774H288.008V107.294ZM308.225 120.749C308.225 118.449 307.742 116.471 306.776 114.815C305.856 113.113 304.614 111.825 303.05 110.951C301.532 110.077 299.876 109.64 298.082 109.64C296.334 109.64 294.678 110.1 293.114 111.02C291.596 111.894 290.354 113.182 289.388 114.884C288.468 116.586 288.008 118.587 288.008 120.887C288.008 123.187 288.468 125.188 289.388 126.89C290.354 128.592 291.596 129.903 293.114 130.823C294.678 131.697 296.334 132.134 298.082 132.134C299.876 132.134 301.532 131.674 303.05 130.754C304.614 129.834 305.856 128.523 306.776 126.821C307.742 125.119 308.225 123.095 308.225 120.749Z" fill="white"/>
<rect y="2.89142" width="52" height="144" rx="5" fill="#EF2346"/>
<rect x="53" y="2.89142" width="45" height="144" rx="5" fill="#7073EE"/>
<rect x="96.4877" y="6.33197" width="41.05" height="142.823" rx="5" transform="rotate(-9.23913 96.4877 6.33197)" fill="#FFBC21"/>
</svg>
